<svg width="114" height="30" viewBox="0 0 114 30" fill="none" xmlns="http://www.w3.org/2000/svg">
<path d="M6.84135 30C4.61652 30 2.92009 29.375 1.75205 28.125C0.584018 26.8472 0 25.0278 0 22.6667V7.33333C0 4.97222 0.584018 3.16667 1.75205 1.91667C2.92009 0.638889 4.61652 0 6.84135 0C9.06618 0 10.7626 0.638889 11.9306 1.91667C13.0987 3.16667 13.6827 4.97222 13.6827 7.33333V9.83333H9.34428V7.04167C9.34428 5.125 8.55169 4.16667 6.9665 4.16667C5.38131 4.16667 4.58871 5.125 4.58871 7.04167V23C4.58871 24.8889 5.38131 25.8333 6.9665 25.8333C8.55169 25.8333 9.34428 24.8889 9.34428 23V17.2917H7.04993V13.125H13.6827V22.6667C13.6827 25.0278 13.0987 26.8472 11.9306 28.125C10.7626 29.375 9.06618 30 6.84135 30Z" fill="white"/>
<path d="M16.6289 0.416666H23.4285C25.7924 0.416666 27.5166 0.972222 28.6012 2.08333C29.6858 3.16667 30.2281 4.84722 30.2281 7.125V8.91667C30.2281 11.9444 29.227 13.8611 27.2246 14.6667V14.75C28.337 15.0833 29.1157 15.7639 29.5607 16.7917C30.0335 17.8194 30.2698 19.1944 30.2698 20.9167V26.0417C30.2698 26.875 30.2977 27.5556 30.3533 28.0833C30.4089 28.5833 30.548 29.0833 30.7704 29.5833H26.0983C25.9314 29.1111 25.8202 28.6667 25.7646 28.25C25.7089 27.8333 25.6811 27.0833 25.6811 26V20.6667C25.6811 19.3333 25.4587 18.4028 25.0137 17.875C24.5965 17.3472 23.8596 17.0833 22.8028 17.0833H21.2176V29.5833H16.6289V0.416666ZM22.8862 12.9167C23.8039 12.9167 24.4853 12.6806 24.9303 12.2083C25.403 11.7361 25.6394 10.9444 25.6394 9.83333V7.58333C25.6394 6.52778 25.4447 5.76389 25.0554 5.29167C24.6939 4.81945 24.1098 4.58333 23.3033 4.58333H21.2176V12.9167H22.8862Z" fill="white"/>
<path d="M40.1281 30C37.9033 30 36.2068 29.375 35.0388 28.125C33.8707 26.8472 33.2867 25.0278 33.2867 22.6667V0.416666H37.8754V23C37.8754 24 38.0701 24.7222 38.4595 25.1667C38.8766 25.6111 39.4606 25.8333 40.2115 25.8333C40.9624 25.8333 41.5325 25.6111 41.9218 25.1667C42.339 24.7222 42.5476 24 42.5476 23V0.416666H46.9694V22.6667C46.9694 25.0278 46.3854 26.8472 45.2174 28.125C44.0493 29.375 42.3529 30 40.1281 30Z" fill="white"/>
<path d="M50.2376 0.416666H56.9955C59.276 0.416666 60.9863 1.02778 62.1265 2.25C63.2667 3.47222 63.8369 5.26389 63.8369 7.625V10.5C63.8369 12.8611 63.2667 14.6528 62.1265 15.875C60.9863 17.0972 59.276 17.7083 56.9955 17.7083H54.8263V29.5833H50.2376V0.416666ZM56.9955 13.5417C57.7464 13.5417 58.3026 13.3333 58.6641 12.9167C59.0535 12.5 59.2481 11.7917 59.2481 10.7917V7.33333C59.2481 6.33333 59.0535 5.625 58.6641 5.20833C58.3026 4.79167 57.7464 4.58333 56.9955 4.58333H54.8263V13.5417H56.9955Z" fill="white"/>
<path d="M72.9618 30C70.7092 30 68.9849 29.3611 67.7891 28.0833C66.5932 26.8056 65.9953 25 65.9953 22.6667V7.33333C65.9953 5 66.5932 3.19444 67.7891 1.91667C68.9849 0.638889 70.7092 0 72.9618 0C75.2144 0 76.9387 0.638889 78.1345 1.91667C79.3304 3.19444 79.9283 5 79.9283 7.33333V22.6667C79.9283 25 79.3304 26.8056 78.1345 28.0833C76.9387 29.3611 75.2144 30 72.9618 30ZM72.9618 25.8333C74.547 25.8333 75.3396 24.875 75.3396 22.9583V7.04167C75.3396 5.125 74.547 4.16667 72.9618 4.16667C71.3766 4.16667 70.584 5.125 70.584 7.04167V22.9583C70.584 24.875 71.3766 25.8333 72.9618 25.8333Z" fill="white"/>
<path d="M89.4557 7.33333H84.6584V4.08333C85.9655 4.08333 87.0084 3.97222 87.7871 3.75C88.5936 3.52778 89.2333 3.16667 89.706 2.66667C90.1788 2.13889 90.596 1.38889 90.9575 0.416666H94.0444V29.5833H89.4557V7.33333Z" fill="white"/>
<path d="M106.367 30C104.114 30 102.39 29.3611 101.194 28.0833C99.9983 26.8056 99.4003 25 99.4003 22.6667V7.33333C99.4003 5 99.9983 3.19444 101.194 1.91667C102.39 0.638889 104.114 0 106.367 0C108.619 0 110.344 0.638889 111.54 1.91667C112.735 3.19444 113.333 5 113.333 7.33333V22.6667C113.333 25 112.735 26.8056 111.54 28.0833C110.344 29.3611 108.619 30 106.367 30ZM106.367 25.8333C107.952 25.8333 108.745 24.875 108.745 22.9583V7.04167C108.745 5.125 107.952 4.16667 106.367 4.16667C104.782 4.16667 103.989 5.125 103.989 7.04167V22.9583C103.989 24.875 104.782 25.8333 106.367 25.8333Z" fill="white"/>
</svg>
