<svg width="76" height="21" viewBox="0 0 76 21" fill="none" xmlns="http://www.w3.org/2000/svg">
<path d="M4.5609 20.5C3.07768 20.5 1.94673 20.0833 1.16804 19.25C0.389345 18.3981 0 17.1852 0 15.6111V5.38889C0 3.81482 0.389345 2.61111 1.16804 1.77778C1.94673 0.925926 3.07768 0.5 4.5609 0.5C6.04412 0.5 7.17508 0.925926 7.95377 1.77778C8.73246 2.61111 9.1218 3.81482 9.1218 5.38889V7.05556H6.22952V5.19445C6.22952 3.91667 5.70113 3.27778 4.64433 3.27778C3.58754 3.27778 3.05914 3.91667 3.05914 5.19445V15.8333C3.05914 17.0926 3.58754 17.7222 4.64433 17.7222C5.70113 17.7222 6.22952 17.0926 6.22952 15.8333V12.0278H4.69995V9.25H9.1218V15.6111C9.1218 17.1852 8.73246 18.3981 7.95377 19.25C7.17508 20.0833 6.04412 20.5 4.5609 20.5Z" fill="white"/>
<path d="M11.0859 0.777777H15.619C17.1949 0.777777 18.3444 1.14815 19.0675 1.88889C19.7906 2.61111 20.1521 3.73148 20.1521 5.25V6.44444C20.1521 8.46296 19.4846 9.74074 18.1497 10.2778V10.3333C18.8914 10.5556 19.4105 11.0093 19.7071 11.6944C20.0223 12.3796 20.1799 13.2963 20.1799 14.4444V17.8611C20.1799 18.4167 20.1984 18.8704 20.2355 19.2222C20.2726 19.5556 20.3653 19.8889 20.5136 20.2222H17.3989C17.2876 19.9074 17.2135 19.6111 17.1764 19.3333C17.1393 19.0556 17.1208 18.5556 17.1208 17.8333V14.2778C17.1208 13.3889 16.9724 12.7685 16.6758 12.4167C16.3977 12.0648 15.9064 11.8889 15.2018 11.8889H14.145V20.2222H11.0859V0.777777ZM15.2575 9.11111C15.8693 9.11111 16.3235 8.9537 16.6202 8.63889C16.9354 8.32407 17.0929 7.7963 17.0929 7.05556V5.55556C17.0929 4.85185 16.9632 4.34259 16.7036 4.02778C16.4626 3.71296 16.0732 3.55556 15.5356 3.55556H14.145V9.11111H15.2575Z" fill="white"/>
<path d="M26.7521 20.5C25.2688 20.5 24.1379 20.0833 23.3592 19.25C22.5805 18.3981 22.1912 17.1852 22.1912 15.6111V0.777777H25.2503V15.8333C25.2503 16.5 25.3801 16.9815 25.6396 17.2778C25.9177 17.5741 26.3071 17.7222 26.8077 17.7222C27.3083 17.7222 27.6883 17.5741 27.9479 17.2778C28.226 16.9815 28.3651 16.5 28.3651 15.8333V0.777777H31.313V15.6111C31.313 17.1852 30.9236 18.3981 30.1449 19.25C29.3662 20.0833 28.2353 20.5 26.7521 20.5Z" fill="white"/>
<path d="M33.4917 0.777777H37.997C39.5173 0.777777 40.6575 1.18519 41.4177 2C42.1778 2.81481 42.5579 4.00926 42.5579 5.58333V7.5C42.5579 9.07407 42.1778 10.2685 41.4177 11.0833C40.6575 11.8981 39.5173 12.3056 37.997 12.3056H36.5509V20.2222H33.4917V0.777777ZM37.997 9.52778C38.4976 9.52778 38.8684 9.38889 39.1094 9.11111C39.369 8.83333 39.4988 8.36111 39.4988 7.69444V5.38889C39.4988 4.72222 39.369 4.25 39.1094 3.97222C38.8684 3.69444 38.4976 3.55556 37.997 3.55556H36.5509V9.52778H37.997Z" fill="white"/>
<path d="M48.6412 20.5C47.1394 20.5 45.9899 20.0741 45.1927 19.2222C44.3955 18.3704 43.9969 17.1667 43.9969 15.6111V5.38889C43.9969 3.83333 44.3955 2.62963 45.1927 1.77778C45.9899 0.925926 47.1394 0.5 48.6412 0.5C50.143 0.5 51.2925 0.925926 52.0897 1.77778C52.8869 2.62963 53.2855 3.83333 53.2855 5.38889V15.6111C53.2855 17.1667 52.8869 18.3704 52.0897 19.2222C51.2925 20.0741 50.143 20.5 48.6412 20.5ZM48.6412 17.7222C49.698 17.7222 50.2264 17.0833 50.2264 15.8056V5.19445C50.2264 3.91667 49.698 3.27778 48.6412 3.27778C47.5844 3.27778 47.056 3.91667 47.056 5.19445V15.8056C47.056 17.0833 47.5844 17.7222 48.6412 17.7222Z" fill="white"/>
<path d="M59.6372 5.38889H56.439V3.22222C57.3104 3.22222 58.0056 3.14815 58.5247 3C59.0624 2.85185 59.4888 2.61111 59.804 2.27778C60.1192 1.92593 60.3973 1.42593 60.6383 0.777777H62.6963V20.2222H59.6372V5.38889Z" fill="white"/>
<path d="M70.9112 20.5C69.4095 20.5 68.26 20.0741 67.4627 19.2222C66.6655 18.3704 66.2669 17.1667 66.2669 15.6111V5.38889C66.2669 3.83333 66.6655 2.62963 67.4627 1.77778C68.26 0.925926 69.4095 0.5 70.9112 0.5C72.413 0.5 73.5625 0.925926 74.3597 1.77778C75.1569 2.62963 75.5556 3.83333 75.5556 5.38889V15.6111C75.5556 17.1667 75.1569 18.3704 74.3597 19.2222C73.5625 20.0741 72.413 20.5 70.9112 20.5ZM70.9112 17.7222C71.968 17.7222 72.4964 17.0833 72.4964 15.8056V5.19445C72.4964 3.91667 71.968 3.27778 70.9112 3.27778C69.8544 3.27778 69.326 3.91667 69.326 5.19445V15.8056C69.326 17.0833 69.8544 17.7222 70.9112 17.7222Z" fill="white"/>
</svg>
